<?xml version="1.0" standalone="no"?>
<!DOCTYPE svg PUBLIC "-//W3C//DTD SVG 20010904//EN"
 "http://www.w3.org/TR/2001/REC-SVG-20010904/DTD/svg10.dtd">
<svg version="1.0" xmlns="http://www.w3.org/2000/svg"
 width="260.000000pt" height="260.000000pt" viewBox="0 0 260.000000 260.000000"
 preserveAspectRatio="xMidYMid meet">
<metadata>
Created by potrace 1.11, written by Peter Selinger 2001-2013
</metadata>
<g transform="translate(0.000000,260.000000) scale(0.100000,-0.100000)"
fill="#000000" stroke="none">
<path d="M1225 2452 c-2 -2 -39 -5 -82 -7 -43 -2 -78 -4 -78 -5 0 -1 -13 -3
-30 -4 -16 -1 -36 -5 -42 -9 -7 -5 -13 -6 -13 -3 0 3 -11 1 -25 -4 -17 -7 -25
-6 -25 1 0 8 -4 8 -13 1 -7 -6 -29 -14 -48 -16 -48 -7 -188 -50 -245 -75 -25
-12 -53 -21 -60 -21 -8 0 -14 -4 -14 -9 0 -5 -14 -14 -30 -20 -17 -5 -30 -15
-30 -21 0 -6 -4 -9 -8 -6 -10 6 -82 -57 -82 -72 0 -7 -4 -12 -9 -12 -12 0 -20
-49 -9 -56 4 -3 6 -9 3 -14 -3 -4 8 -19 25 -33 20 -18 40 -24 65 -23 34 1 36
-1 56 -54 48 -125 81 -216 86 -237 3 -13 9 -23 12 -23 4 0 8 -6 8 -12 0 -11
36 -109 63 -173 5 -11 16 -42 26 -70 10 -27 21 -54 24 -60 8 -11 21 -61 19
-71 0 -4 3 -10 8 -13 4 -3 17 -31 27 -61 10 -30 24 -68 31 -85 7 -16 27 -68
45 -115 18 -47 37 -98 43 -115 7 -16 11 -33 9 -37 -1 -5 2 -8 6 -8 5 0 9 -6 9
-12 1 -11 66 -189 93 -253 11 -27 23 -59 24 -65 1 -5 42 -112 56 -145 5 -11
18 -47 30 -80 40 -112 84 -176 134 -195 46 -17 118 71 161 200 11 30 18 58 17
63 -1 4 2 7 8 7 5 0 10 7 10 16 0 9 6 30 14 47 24 54 51 132 48 140 -1 4 2 7
8 7 5 0 10 7 10 15 0 8 15 54 34 102 19 49 46 120 60 158 15 39 36 94 47 122
11 29 22 58 23 65 1 7 4 18 7 23 10 17 33 90 31 98 -1 4 3 7 8 7 6 0 10 9 10
20 0 11 4 20 8 20 4 0 8 8 9 18 1 9 7 31 14 47 7 17 13 32 14 35 1 3 6 16 12
30 17 37 63 159 80 210 8 25 19 50 23 55 4 6 11 24 15 40 10 34 8 29 26 75 7
19 12 38 11 43 -1 4 3 7 9 7 5 0 8 4 4 9 -3 5 -1 12 5 16 6 4 8 11 5 16 -4 5
-2 9 4 9 6 0 8 7 5 15 -4 8 -1 15 5 15 6 0 11 11 11 23 0 13 3 27 8 31 4 4 7
11 8 14 0 4 6 19 12 35 12 27 17 30 63 29 14 0 38 10 54 24 15 13 25 24 22 24
-4 0 -2 12 4 26 7 21 6 33 -7 53 -25 38 -67 80 -81 81 -7 0 -13 4 -13 8 0 10
-155 85 -185 89 -11 2 -24 8 -29 13 -6 6 -18 10 -27 10 -10 0 -30 5 -46 12
-15 6 -32 12 -38 13 -13 1 -108 18 -117 21 -5 1 -9 3 -10 4 -2 1 -14 3 -28 4
-14 1 -29 4 -35 7 -5 3 -27 5 -47 4 -21 0 -38 2 -38 5 0 8 -278 19 -285 12z"/>
</g>
</svg>
